<?xml version="1.0" encoding="UTF-8" standalone="no"?>
<!-- Created with Inkscape (http://www.inkscape.org/) -->

<svg
   xmlns:dc="http://purl.org/dc/elements/1.1/"
   xmlns:cc="http://creativecommons.org/ns#"
   xmlns:rdf="http://www.w3.org/1999/02/22-rdf-syntax-ns#"
   xmlns:svg="http://www.w3.org/2000/svg"
   xmlns="http://www.w3.org/2000/svg"
   xmlns:sodipodi="http://sodipodi.sourceforge.net/DTD/sodipodi-0.dtd"
   xmlns:inkscape="http://www.inkscape.org/namespaces/inkscape"
   width="72"
   height="300"
   viewBox="0 0 72.000002 300.00001"
   id="svg4565"
   version="1.1"
   inkscape:version="0.91 r13725"
   sodipodi:docname="social_network_sprite.svg">
  <defs
     id="defs4567" />
  <sodipodi:namedview
     id="base"
     pagecolor="#ffffff"
     bordercolor="#666666"
     borderopacity="1.0"
     inkscape:pageopacity="0.0"
     inkscape:pageshadow="2"
     inkscape:zoom="2.5135436"
     inkscape:cx="-2.7544191"
     inkscape:cy="232.09909"
     inkscape:document-units="px"
     inkscape:current-layer="layer1"
     showgrid="false"
     inkscape:snap-page="true"
     inkscape:snap-bbox="true"
     inkscape:bbox-paths="true"
     inkscape:bbox-nodes="true"
     inkscape:snap-bbox-midpoints="true"
     units="px"
     inkscape:window-width="1536"
     inkscape:window-height="811"
     inkscape:window-x="-8"
     inkscape:window-y="22"
     inkscape:window-maximized="1" />
  <metadata
     id="metadata4570">
    <rdf:RDF>
      <cc:Work
         rdf:about="">
        <dc:format>image/svg+xml</dc:format>
        <dc:type
           rdf:resource="http://purl.org/dc/dcmitype/StillImage" />
        <dc:title></dc:title>
      </cc:Work>
    </rdf:RDF>
  </metadata>
  <g
     inkscape:label="Layer 1"
     inkscape:groupmode="layer"
     id="layer1"
     transform="translate(0,-752.36208)">
    <rect
       style="opacity:1;fill:#00b500;fill-opacity:0;fill-rule:nonzero;stroke:#2196f3;stroke-width:0;stroke-linecap:round;stroke-linejoin:miter;stroke-miterlimit:4;stroke-dasharray:none;stroke-opacity:0"
       id="rect5113"
       width="72.000023"
       height="300"
       x="4.2426414e-006"
       y="752.36218" />
    <g
       id="g5292">
      <rect
         y="752.36218"
         x="4.9400633e-006"
         height="24"
         width="24"
         id="rect5252"
         style="opacity:1;fill:#ff0000;fill-opacity:0;fill-rule:nonzero;stroke:#2196f3;stroke-width:0;stroke-linecap:round;stroke-linejoin:miter;stroke-miterlimit:4;stroke-dasharray:none;stroke-opacity:0" />
      <g
         transform="matrix(0.0390625,0,0,0.0390625,2.000005,754.36218)"
         id="g5173">
        <path
           style="fill:#1da1f2"
           inkscape:connector-curvature="0"
           d="M 512,256 C 512,397.4 397.4,512 256,512 114.6,512 0,397.4 0,256 0,114.6 114.6,0 256,0 397.4,0 512,114.6 512,256 Z"
           id="path5175" />
        <path
           style="fill:#ffffff"
           inkscape:connector-curvature="0"
           d="m 358.5,202.9 c 3.3,73.9 -51.8,156.2 -149.3,156.2 -29.7,0 -57.3,-8.7 -80.5,-23.6 27.9,3.3 55.7,-4.4 77.8,-21.7 -23,-0.4 -42.4,-15.6 -49.1,-36.5 8.2,1.6 16.3,1.1 23.7,-0.9 -25.3,-5.1 -42.7,-27.8 -42.1,-52.2 7.1,3.9 15.2,6.3 23.8,6.6 -23.4,-15.6 -30,-46.5 -16.3,-70.1 25.9,31.8 64.6,52.7 108.3,54.9 -7.6,-32.9 17.3,-64.5 51.2,-64.5 15.1,0 28.7,6.4 38.3,16.6 12,-2.4 23.2,-6.7 33.4,-12.7 -3.9,12.3 -12.3,22.6 -23.1,29.1 10.6,-1.3 20.7,-4.1 30.2,-8.3 -7.2,10.5 -16.1,19.7 -26.3,27.1 z"
           id="twitter-4-icon_3_" />
      </g>
    </g>
    <g
       id="g5313"
       transform="translate(-15.201451,-32.921326)">
      <rect
         y="785.28351"
         x="39.201466"
         height="24"
         width="24"
         id="rect5252-8"
         style="opacity:1;fill:#ff0000;fill-opacity:0;fill-rule:nonzero;stroke:#2196f3;stroke-width:0;stroke-linecap:round;stroke-linejoin:miter;stroke-miterlimit:4;stroke-dasharray:none;stroke-opacity:0" />
      <g
         id="layer1-0"
         transform="matrix(0.04,0,0,0.04,41.201466,765.18902)">
        <rect
           height="500"
           id="rect2990-1"
           rx="250"
           ry="250"
           style="fill:#01aef2;fill-opacity:1;stroke:none"
           width="500"
           x="0"
           y="552.36218" />
        <path
           inkscape:connector-curvature="0"
           d="M 178.52632,642.36218 C 129.67731,642.36218 90,681.43235 90,729.59902 c 0,16.16667 4.405409,31.24123 12.15789,44.1579 -2.00064,9.74999 -3.105258,19.92982 -3.105258,30.26315 0,83.16666 68.380868,150.5 152.657898,150.5 9.5864,0 18.91816,-0.83333 27.92105,-2.5 12.50401,6.58334 26.75394,10.34211 41.8421,10.34211 48.93236,0 88.52632,-39.07018 88.52632,-87.23684 0.0834,-13.91667 -3.26564,-27.09649 -9.18421,-38.76316 2.33409,-10.41667 3.52632,-21.17982 3.52632,-32.26316 0,-83.08332 -68.37647,-150.47368 -152.73685,-150.47368 -8.91953,0 -17.57621,0.74123 -26.07894,2.15789 -13.58768,-8.5 -29.66111,-13.42105 -47,-13.42105 z m 71.8421,55.76316 c 13.67105,0 25.60206,1.57894 35.60526,4.57895 10.08656,3.08332 18.48468,7.25439 25.23685,12.42105 6.6688,5.16666 11.67443,10.64474 14.8421,16.39473 3.16769,5.83334 4.76316,11.57456 4.76316,17.1579 0,5.33333 -2.09514,10.2763 -6.26316,14.52632 -4.168,4.24999 -9.40588,6.5 -15.65789,6.5 -5.66849,0 -10.09989,-1.33335 -13.18421,-4 -2.83424,-2.5 -5.82791,-6.36404 -9.07895,-11.94737 -3.83457,-7.08334 -8.40621,-12.73685 -13.6579,-16.73685 -5.16832,-3.83333 -13.68918,-5.8421 -25.52631,-5.8421 -10.92017,0 -19.83562,2.19736 -26.42105,6.44737 -6.33537,4.08332 -9.42106,8.81141 -9.42106,14.39473 0,3.41668 1.02127,6.26317 3.10527,8.76316 2.16736,2.58334 5.16102,4.92544 9.07894,6.84211 4.00129,2 8.15221,3.57456 12.23685,4.65789 4.25136,1.16667 11.35214,2.91229 21.10526,5.07895 12.42066,2.58333 23.75994,5.60088 33.76316,8.68421 10.16992,3.25 18.90998,7.15351 26.07894,11.73684 7.33569,4.66666 13.09516,10.75439 17.26316,17.92106 4.08465,7.16666 6.1579,16.16666 6.1579,26.5 0.33344,12.58333 -3.2521,23.92981 -10.42106,33.76315 -7.0856,9.83333 -17.49566,17.63158 -31,23.13158 -13.42096,5.5 -29.42394,8.26316 -47.76315,8.26316 -21.9237,0 -40.26293,-3.81579 -54.68421,-11.31579 -10.25329,-5.5 -18.68213,-12.85965 -25.18421,-22.02632 -6.50209,-9.16666 -9.76316,-18.32456 -9.76316,-27.15789 0,-5.5 2.20041,-10.23684 6.36842,-14.23684 4.16801,-3.83333 9.58569,-5.84211 15.92105,-5.84211 5.25169,0 9.72691,1.49562 13.39474,4.57895 3.50113,2.91667 6.50361,7.25439 8.92105,12.92105 2.75088,6.08334 5.70075,11.23247 8.86842,15.31579 3.00097,3.91667 7.23508,7.17983 12.73684,9.76316 5.58512,2.58333 12.9883,3.92105 22.1579,3.92105 12.58738,0 22.93173,-2.67105 30.68421,-7.92105 7.66913,-5.08333 11.3421,-11.26317 11.3421,-18.76316 0,-5.91667 -1.91976,-10.57018 -5.92105,-14.23684 -4.16801,-3.83333 -9.58994,-6.81579 -16.3421,-8.81579 -6.9189,-2.16666 -16.3296,-4.45176 -28,-6.86842 -15.83842,-3.33333 -29.24656,-7.3158 -40,-11.81579 -10.92017,-4.58333 -19.76109,-10.97806 -26.26316,-18.89474 -6.58545,-8.08332 -9.84211,-18.26755 -9.84211,-30.18421 0,-11.41667 3.50658,-21.58772 10.34211,-30.42105 6.83553,-8.75 16.73708,-15.57017 29.65789,-20.23684 12.67073,-4.66666 27.75771,-7 44.76316,-7 z"
           id="rect2989-7"
           style="fill:#ffffff;fill-opacity:1;stroke:none" />
        <g
           id="layer1-9"
           transform="translate(-549.00515,80.294372)" />
        <g
           id="layer1-6"
           transform="translate(-575.71429,39.999999)" />
      </g>
    </g>
    <g
       id="g5351">
      <rect
         y="752.36218"
         x="48.000023"
         height="24"
         width="24"
         id="rect5252-8-1-2"
         style="opacity:1;fill:#ff0000;fill-opacity:0;fill-rule:nonzero;stroke:#2196f3;stroke-width:0;stroke-linecap:round;stroke-linejoin:miter;stroke-miterlimit:4;stroke-dasharray:none;stroke-opacity:0" />
      <g
         transform="matrix(0.0390625,0,0,0.0390625,50.000023,754.36218)"
         id="g5142">
        <circle
           style="fill:#0077b5"
           cx="256"
           cy="256"
           r="256"
           id="circle5144" />
        <path
           style="fill:#ffffff"
           inkscape:connector-curvature="0"
           d="m 186.8,371.7 -51.9,0 0,-167.6 51.9,0 0,167.6 z M 160.6,182.2 c -16.9,0 -30.7,-13.8 -30.7,-30.9 0,-17.1 13.7,-30.9 30.7,-30.9 16.9,0 30.7,13.8 30.7,30.9 0,17 -13.8,30.9 -30.7,30.9 z m 220.6,189.5 -51.6,0 c 0,0 0,-63.8 0,-88 0,-24.1 -9.2,-37.6 -28.2,-37.6 -20.8,0 -31.6,14 -31.6,37.6 0,25.8 0,88 0,88 l -49.8,0 0,-167.6 49.8,0 0,22.6 c 0,0 15,-27.7 50.5,-27.7 35.5,0 61,21.7 61,66.6 -0.1,44.9 -0.1,106.1 -0.1,106.1 z"
           id="linkedin-square-rounded-icon_1_" />
      </g>
    </g>
    <g
       id="g5392"
       transform="translate(-72.000026,24.00001)">
      <rect
         y="752.36218"
         x="72.000031"
         height="24"
         width="24"
         id="rect5252-8-1-8"
         style="opacity:1;fill:#ff0000;fill-opacity:0;fill-rule:nonzero;stroke:#2196f3;stroke-width:0;stroke-linecap:round;stroke-linejoin:miter;stroke-miterlimit:4;stroke-dasharray:none;stroke-opacity:0" />
      <g
         transform="translate(74.000031,-37.158977)"
         id="g5359">
        <rect
           style="opacity:1;fill:#ffffff;fill-opacity:1;fill-rule:nonzero;stroke:#ffffff;stroke-width:0;stroke-linecap:round;stroke-linejoin:miter;stroke-miterlimit:4;stroke-dasharray:none;stroke-opacity:0"
           id="rect5357"
           width="12.396005"
           height="12.731031"
           x="3.8019977"
           y="795.15564" />
        <path
           id="path5116"
           style="clip-rule:evenodd;fill:#3a589b;fill-rule:evenodd"
           d="m 8.58833,806.96116 2.248,0 0,-5.44067 1.49967,0 0.19867,-1.87466 -1.69834,0 0.002,-0.93867 c 0,-0.48867 0.0467,-0.751 0.748,-0.751 l 0.93733,0 0,-1.875 -1.5,0 c -1.80167,0 -2.43567,0.90967 -2.43567,2.439 l 0,1.12567 -1.123,0 0,1.875 1.123,0 0,5.44033 z m 1.41167,4.56 c -5.52267,0 -10,-4.47733 -10,-10 0,-5.523 4.47733,-10 10,-10 5.52267,0 10,4.477 10,10 0,5.52267 -4.47733,10 -10,10 z"
           inkscape:connector-curvature="0" />
      </g>
    </g>
    <g
       id="g5378"
       transform="translate(-4.2248518e-7,24.00001)">
      <g
         id="g5402">
        <circle
           r="9.9999952"
           cy="788.56274"
           cx="12.000005"
           id="path5400"
           style="opacity:1;fill:#ffffff;fill-opacity:1;fill-rule:nonzero;stroke:#2196f3;stroke-width:0;stroke-linecap:round;stroke-linejoin:miter;stroke-miterlimit:4;stroke-dasharray:none;stroke-opacity:0" />
        <g
           transform="translate(4.9400633e-6,-14.153554)"
           id="g5385">
          <rect
             y="790.51575"
             x="0"
             height="24"
             width="24"
             id="rect5252-8-1-5"
             style="opacity:1;fill:#ff0000;fill-opacity:0;fill-rule:nonzero;stroke:#2196f3;stroke-width:0;stroke-linecap:round;stroke-linejoin:miter;stroke-miterlimit:4;stroke-dasharray:none;stroke-opacity:0" />
          <g
             transform="translate(113.4022,528.10256)"
             id="_x31__stroke">
            <g
               transform="matrix(0.15625,0,0,0.15625,-111.4022,264.41319)"
               id="Github_1_">
              <rect
                 style="clip-rule:evenodd;fill:none;fill-rule:evenodd"
                 y="0"
                 x="0"
                 height="128"
                 width="128"
                 id="rect5128" />
              <path
                 style="clip-rule:evenodd;fill:#3e75c3;fill-rule:evenodd"
                 inkscape:connector-curvature="0"
                 d="M 63.996,1.333 C 28.656,1.333 0,30.099 0,65.591 c 0,28.384 18.336,52.467 43.772,60.965 3.2,0.59 4.368,-1.394 4.368,-3.096 0,-1.526 -0.056,-5.566 -0.088,-10.927 -17.804,3.883 -21.56,-8.614 -21.56,-8.614 -2.908,-7.421 -7.104,-9.397 -7.104,-9.397 -5.812,-3.988 0.44,-3.907 0.44,-3.907 6.42,0.454 9.8,6.622 9.8,6.622 5.712,9.819 14.98,6.984 18.628,5.337 0.58,-4.152 2.236,-6.984 4.064,-8.59 -14.212,-1.622 -29.152,-7.132 -29.152,-31.753 0,-7.016 2.492,-12.75 6.588,-17.244 -0.66,-1.626 -2.856,-8.156 0.624,-17.003 0,0 5.376,-1.727 17.6,6.586 5.108,-1.426 10.58,-2.136 16.024,-2.165 5.436,0.028 10.912,0.739 16.024,2.165 12.216,-8.313 17.58,-6.586 17.58,-6.586 3.492,8.847 1.296,15.377 0.636,17.003 4.104,4.494 6.58,10.228 6.58,17.244 0,24.681 -14.964,30.115 -29.22,31.705 2.296,1.984 4.344,5.903 4.344,11.899 0,8.59 -0.08,15.517 -0.08,17.626 0,1.719 1.152,3.719 4.4,3.088 C 109.68,118.034 128,93.967 128,65.591 128,30.099 99.344,1.333 63.996,1.333"
                 id="Github" />
            </g>
          </g>
        </g>
      </g>
    </g>
  </g>
</svg>
